<svg enable-background="new 0 0 512 512" viewBox="0 0 512 512" xmlns="http://www.w3.org/2000/svg"><g id="_x30_6_x2C__Shake_Hands_x2C__Hands_x2C__Deal_x2C__Agreement_x2C__Commitment_x2C__Cooperation"><g><path d="m191.248 380.174c-8.816-8.816-23.162-8.817-31.979 0l-10.112 10.112c-8.816 8.816-8.816 23.162 0 31.979 8.814 8.815 23.162 8.816 31.979-.001l10.112-10.112c8.817-8.816 8.817-23.162 0-31.978z"/><path d="m201.855 422.76-10.112 10.112c-8.816 8.816-8.816 23.161 0 31.978 8.836 8.838 23.14 8.839 31.979.001l10.111-10.112h.001c8.838-8.838 8.837-23.141 0-31.979-8.816-8.816-23.162-8.817-31.979 0z"/><path d="m148.663 337.589c-8.836-8.836-23.141-8.841-31.979-.001l-10.113 10.112c-8.817 8.816-8.817 23.162 0 31.979 8.816 8.818 23.162 8.818 31.979 0l10.112-10.112c8.836-8.834 8.839-23.14.001-31.978z"/><path d="m90.086 288.39c-12.175 0-17.132 8.088-26.101 16.725-8.816 8.816-8.816 23.162 0 31.979 8.815 8.815 23.163 8.816 31.979-.001l10.112-10.112c14.301-14.298 3.981-38.591-15.99-38.591z"/><path d="m168.657 49.424c-11.868-11.868-31.08-11.872-42.949 0l-100.818 100.817c-11.869 11.867-11.871 31.081 0 42.949l13.085 13.085 143.768-143.767z"/><path d="m386.292 59.587c-11.867-11.869-31.08-11.87-42.948 0l-13.086 13.085 143.767 143.768 13.085-13.086c11.869-11.867 11.871-31.08 0-42.948z"/><path d="m300.709 181.466c-18.225 15.267-42.979 20.118-65.655 12.805l-36.49 36.491c-18.347 18.347-48.041 18.347-66.391 0-18.302-18.305-18.302-48.086 0-66.39l32.531-32.532c15.529-15.528 36.177-24.081 58.139-24.081h4.142l-34.639-34.639-143.764 143.764 18.059 18.067c8.694 8.684 13.484 20.249 13.484 32.562 0 2.421.279 4.771.797 7.013 12.402-3.095 26.084.192 35.76 9.869 8.701 8.701 12.239 20.638 10.616 31.971 11.333-1.622 23.27 1.915 31.97 10.615 8.7 8.701 12.238 20.638 10.616 31.971 11.333-1.622 23.27 1.915 31.969 10.615 8.701 8.701 12.239 20.638 10.616 31.971 11.333-1.622 23.269 1.915 31.97 10.615 10.75 10.75 13.63 26.363 8.654 39.728 8.564 4.534 19.373 3.16 26.526-3.998 8.793-8.811 8.812-23.009.141-31.818-.042-.042-.08-.087-.121-.13l-47.743-47.743c-2.929-2.93-2.929-7.678 0-10.607 2.93-2.928 7.678-2.928 10.607 0l47.644 47.644c.027.026.056.048.083.075 8.827 8.835 23.142 8.835 31.969 0 8.802-8.819 8.824-23.003.146-31.833l-47.865-47.863c-2.929-2.93-2.929-7.678 0-10.607 2.924-2.922 7.673-2.936 10.609-.001l47.911 47.907c.005.005.008.01.013.014 8.768 8.598 23.041 8.528 31.782-.204 8.794-8.812 8.775-22.988.191-31.783-.002-.002-.005-.004-.007-.006l-47.909-47.909c-2.929-2.93-2.929-7.678 0-10.607 0 0 .001-.001.001-.001s.001-.001.001-.002c2.931-2.928 7.679-2.928 10.607 0l47.909 47.91c8.764 8.622 23.041 8.56 31.781-.188 8.229-8.229 8.607-20.902 2.151-29.493z"/><path d="m300.77 102.161c-24.099 24.097-53.15 20.174-55.602 20.598-2.122.022 7.806.001-22.325 0-17.955 0-34.836 6.992-47.531 19.688l-32.531 32.531c-12.455 12.455-12.455 32.721 0 45.177 12.485 12.485 32.691 12.485 45.176 0l39.862-39.863c2.13-2.128 5.324-2.777 8.114-1.649 20.233 8.178 43.277 3.493 58.707-11.939 4.163-3.075 7.665-4.883 11.581-.956l109.039 109.4 48.155-48.103-143.765-143.765z"/></g></g><g id="Layer_1"/></svg>